<svg width="164" height="36" viewBox="0 0 164 36" fill="none" xmlns="http://www.w3.org/2000/svg">
<rect x="2.39472" y="7.20142" width="4.01638" height="34.2961" transform="rotate(-45 2.39472 7.20142)" fill="#E8E8E8" stroke="#E8E8E8" stroke-width="0.330151"/>
<rect x="5.4209" y="31.8248" width="4.27968" height="34.2961" transform="rotate(-135 5.4209 31.8248)" fill="#E8E8E8" stroke="#E8E8E8" stroke-width="0.330151"/>
<path d="M55.7263 2.2312L58.3572 3.67358L58.5769 3.7937L58.4568 4.01245L55.95 8.58765C54.3539 11.5009 51.7568 13.7383 48.6394 14.8855L43.0398 16.946L42.0398 25.1746L50.0173 17.196L50.1941 17.0193L52.6687 19.4939L44.5144 27.6482L52.7371 26.6482L54.8123 20.9666C55.9342 17.8926 58.1157 15.3195 60.9646 13.7097L65.5427 11.1238L65.7605 11.0007L65.8835 11.2185L67.3591 13.8298L67.4822 14.0476L67.2644 14.1707L62.6863 16.7585C60.5629 17.9584 58.9368 19.8758 58.1003 22.1667L55.3435 29.7214L55.2908 29.865L55.1384 29.8835L37.9998 31.9685L37.6824 32.0076L37.7214 31.6902L39.8044 14.5496L39.823 14.3982L39.9666 14.3455L47.4304 11.6003C49.7545 10.7453 51.6907 9.07774 52.8806 6.90601L55.3875 2.33081L55.5076 2.11108L55.7263 2.2312Z" fill="#E8E8E8" stroke="#E8E8E8" stroke-width="0.5"/>
<g clip-path="url(#clip0_142_19)">
<path d="M84.157 31.4844L72.0205 17.9999L84.1549 4.51538L87.2821 7.32922L77.6776 17.9999L87.2821 28.6706L84.157 31.4844ZM92.8803 4.51538L105.017 17.9999L92.8824 31.4844L89.7552 28.6706L99.3597 17.9999L89.7552 7.32922L92.8803 4.51538Z" fill="#E8E8E8"/>
</g>
<path d="M119.888 16.5033L122.953 13.4025L120.958 11.371L119.389 12.9392L117.394 10.9433L118.926 9.37513L117.322 7.7713L114.221 10.872L119.888 16.5033ZM131.579 28.2291L134.679 25.1283L133.075 23.5245L131.507 25.057L129.511 23.0612L131.044 21.493L129.012 19.4971L125.947 22.5622L131.579 28.2291ZM117.679 30.8308H111.62V24.7719L117.857 18.5348L110.194 10.872L117.322 3.7439L125.021 11.4423L132.47 3.95774L138.457 10.0167L131.044 17.4656L138.707 25.1283L131.579 32.2565L123.916 24.5937L117.679 30.8308ZM114.471 27.9796H116.467L130.438 14.0441L128.406 12.0125L114.471 25.9837V27.9796ZM129.44 13.0461L128.406 12.0125L130.438 14.0441L129.44 13.0461Z" fill="#E8E8E8"/>
<defs>
<clipPath id="clip0_142_19">
<rect width="33.6482" height="33.6482" fill="white" transform="translate(71.6946 1.17578)"/>
</clipPath>
</defs>
</svg>
